<svg xmlns="http://www.w3.org/2000/svg" width="26.277" height="26.277" viewBox="0 0 26.277 26.277"><defs><style>.a{fill:#fff;}</style></defs><path class="a" d="M16.514,3.375A13.139,13.139,0,1,0,29.652,16.514,13.137,13.137,0,0,0,16.514,3.375ZM5.144,16.514a11.372,11.372,0,0,1,22.734-.48,3.846,3.846,0,0,0-2.767-1.516c-1.737,0-2.634,1.623-3.221,2.7-.088.158-.171.31-.246.442a3.127,3.127,0,0,1-2.685,1.826,2.557,2.557,0,0,1-2.034-1.819c-.581-1.4-1.838-2.893-3.342-3.108a3.007,3.007,0,0,0-2.824,1.352c-.2.253-.436.594-.7.985C9.4,17.872,8.4,19.343,7.651,19.47a2.886,2.886,0,0,1-2.3-.777A11.329,11.329,0,0,1,5.144,16.514Z" transform="translate(-3.375 -3.375)"/></svg>