<svg xmlns="http://www.w3.org/2000/svg" width="20.842" height="20.842" viewBox="0 0 20.842 20.842"><defs><style>.a{fill:#29347b;opacity:0.93;}</style></defs><path class="a" d="M10.712,11.858,15.683,3.25A10.74,10.74,0,0,0,13.421,3,10.4,10.4,0,0,0,6.835,5.345l3.814,6.617Zm12.651-1.563A10.447,10.447,0,0,0,17.11,3.688L13.3,10.295H23.363Zm.271,1.042H15.829l.3.521,4.96,8.6a10.328,10.328,0,0,0,2.751-7.034A10.55,10.55,0,0,0,23.634,11.337ZM9.815,13.421,5.751,6.387A10.377,10.377,0,0,0,3,13.421a10.55,10.55,0,0,0,.208,2.084h7.805ZM3.479,16.548a10.447,10.447,0,0,0,6.253,6.607l3.814-6.607H3.479Zm11.745,0L11.16,23.592a10.74,10.74,0,0,0,2.261.25A10.4,10.4,0,0,0,20.007,21.5L16.193,14.88l-.969,1.667Z" transform="translate(-3 -3)"/></svg>