<svg xmlns="http://www.w3.org/2000/svg" width="20.733" height="16.586" viewBox="0 0 20.733 16.586"><defs><style>.a{fill:#f7c80b;}</style></defs><path class="a" d="M17.1,14.513H3.628a.52.52,0,0,0-.518.518v1.037a.52.52,0,0,0,.518.518H17.1a.52.52,0,0,0,.518-.518V15.031A.52.52,0,0,0,17.1,14.513ZM19.178,4.147A1.555,1.555,0,0,0,17.623,5.7a1.523,1.523,0,0,0,.143.641L15.42,7.749a1.035,1.035,0,0,1-1.432-.376l-2.64-4.62a1.555,1.555,0,1,0-1.963,0l-2.64,4.62a1.036,1.036,0,0,1-1.432.376L2.971,6.343a1.554,1.554,0,1,0-1.416.914A1.588,1.588,0,0,0,1.8,7.231l2.342,6.246h12.44l2.342-6.246a1.588,1.588,0,0,0,.249.026,1.555,1.555,0,1,0,0-3.11Z"/></svg>