<svg id="Layer_1" enable-background="new 0 0 256 256" height="512" viewBox="0 0 256 256" width="512" xmlns="http://www.w3.org/2000/svg"><g><g><path d="m42.346 71.462 8.602 27.043c1.57 4.937-.86 10.259-5.624 12.312l-34.532 14.887c-2.015.869-2.015 3.721 0 4.59l34.533 14.888c4.763 2.053 7.194 7.375 5.623 12.312l-8.602 27.043c-.624 1.963 1.264 3.796 3.212 3.116l21.86-7.624c6.567-2.29 13.434 2.577 13.434 9.522v26.199c0 2.239 2.721 3.349 4.291 1.75l11.829-12.043c4.527-4.609 12.166-3.844 15.687 1.571l13.242 20.368c.987 1.518 3.213 1.518 4.2 0l13.242-20.368c3.52-5.415 11.159-6.18 15.687-1.571l11.829 12.043c1.57 1.598 4.291.489 4.291-1.75v-26.199c0-6.945 6.867-11.812 13.434-9.522l21.86 7.624c1.948.679 3.836-1.153 3.212-3.116l-8.602-27.043c-1.57-4.937.86-10.259 5.624-12.312l34.533-14.888c2.015-.869 2.015-3.721 0-4.59l-34.533-14.888c-4.763-2.053-7.194-7.375-5.623-12.312l8.602-27.043c.624-1.963-1.264-3.796-3.212-3.116l-21.86 7.624c-6.567 2.29-13.434-2.577-13.434-9.522v-26.198c0-2.239-2.721-3.349-4.291-1.75l-11.829 12.043c-4.527 4.609-12.166 3.844-15.687-1.571l-13.244-20.368c-.987-1.518-3.213-1.518-4.2 0l-13.242 20.367c-3.52 5.415-11.159 6.18-15.687 1.571l-11.828-12.042c-1.57-1.598-4.291-.489-4.291 1.75v26.199c0 6.945-6.867 11.812-13.434 9.522l-21.86-7.624c-1.948-.679-3.837 1.153-3.212 3.116z" fill="#ffea92"/></g><g><g><path d="m196.554 105.998h52.04c1.268 0 2.296 1.028 2.296 2.296v39.413c0 1.268-1.028 2.296-2.296 2.296h-52.04z" fill="#f9cfcf"/></g><g><path d="m248.595 152.002h-52.041c-1.104 0-2-.896-2-2v-44.005c0-1.104.896-2 2-2h52.041c2.369 0 4.296 1.927 4.296 4.296v39.413c0 2.369-1.927 4.296-4.296 4.296zm-50.041-4h50.041c.163 0 .296-.133.296-.296v-39.413c0-.163-.133-.296-.296-.296h-50.041z" fill="#3762cc"/></g><g><g><path d="m201.812 97.737c-4.586-4.356-10.669-6.784-16.994-6.784h-9.909-9.302c-3.805 0-6.896 3.021-7.025 6.795h-.012v.243 60.262 6.795h16.34 9.909c6.325 0 12.408-2.429 16.994-6.784l5.291-5.025v-6.795c0-32.774 0-11.312 0-43.68z" fill="#f9a7a7"/></g><g><path d="m201.812 97.737c-4.586-4.356-10.669-6.784-16.994-6.784-11.325 0-11.84 0-19.211 0-3.805 0-6.896 3.021-7.025 6.795h-.012v.243 60.262 6.795h16.34 9.909c6.325 0 12.408-2.429 16.994-6.784l5.291-5.025v-6.795c0-32.774 0-11.312 0-43.68z" fill="#6bdddd"/></g><g><path d="m184.818 167.047h-26.249c-1.104 0-2-.896-2-2v-67.299c0-.11.009-.218.026-.324.293-4.771 4.203-8.471 9.011-8.471h19.212c6.867 0 13.392 2.604 18.37 7.334l5.291 5.025c.397.377.623.902.623 1.45v50.475c0 .548-.226 1.073-.623 1.45l-5.291 5.025c-4.978 4.73-11.502 7.335-18.37 7.335zm-24.249-4h24.249c5.838 0 11.383-2.214 15.616-6.234l4.668-4.434v-48.757l-4.668-4.434c-4.233-4.021-9.778-6.234-15.616-6.234h-19.212c-2.725 0-4.933 2.136-5.025 4.863-.002.053-.006.105-.012.157z" fill="#3762cc"/></g><g><path d="m174.262 104.057v54.681c0 3.485-2.825 6.309-6.309 6.309h-18.443c-6.969 0-12.619-5.65-12.619-12.619v-42.062c0-6.969 5.65-12.619 12.619-12.619h18.443c3.484.001 6.309 2.825 6.309 6.31z" fill="#f9a7a7"/></g><g><path d="m174.262 104.057v54.681c0 3.485-2.825 6.309-6.309 6.309h-18.443c-6.969 0-12.619-5.65-12.619-12.619v-42.062c0-6.969 5.65-12.619 12.619-12.619h18.443c3.484.001 6.309 2.825 6.309 6.31z" fill="#6bdddd"/></g><g><path d="m167.952 167.047h-18.442c-8.061 0-14.618-6.558-14.618-14.619v-42.062c0-8.061 6.558-14.619 14.618-14.619h18.442c4.582 0 8.31 3.728 8.31 8.31v54.681c0 4.581-3.728 8.309-8.31 8.309zm-18.442-67.299c-5.854 0-10.618 4.764-10.618 10.619v42.062c0 5.855 4.764 10.619 10.618 10.619h18.442c2.376 0 4.31-1.933 4.31-4.309v-54.681c0-2.376-1.934-4.31-4.31-4.31z" fill="#3762cc"/></g><g><path d="m201.812 97.737c-4.586-4.356-10.669-6.784-16.994-6.784h-9.909-9.302c-3.805 0-6.896 3.021-7.025 6.795-.019.379-.012 16.656-.012 16.278 0 4.333 3.513 7.846 7.846 7.846s7.846-3.513 7.846-7.846v-16.278h27.561z" fill="#6bdddd"/></g><g><path d="m166.416 123.872c-5.428 0-9.845-4.415-9.847-9.842v-.001c0-.001 0-.002 0-.003 0-.092.006-.183.019-.271-.019-.53-.02-1.24-.02-2.213v-5.511c.002-8.1.011-8.278.017-8.385.165-4.858 4.129-8.691 9.021-8.691h19.212c6.867 0 13.392 2.604 18.37 7.334l-2.747 2.907-.011-.01c-4.229-4.017-9.774-6.231-15.612-6.231h-19.212c-2.725 0-4.933 2.136-5.025 4.863-.017.658-.013 15.375-.012 16.199v.011c0 3.224 2.623 5.846 5.847 5.846s5.846-2.623 5.846-5.846v-16.28c0-1.104.896-2 2-2s2 .896 2 2v16.278c0 5.429-4.417 9.846-9.846 9.846z" fill="#3762cc"/></g><g><path d="m207.103 117.841h-9.468c-9.913 0-19.26-4.824-25.003-12.903-.641-.9-.429-2.149.471-2.789.901-.64 2.149-.429 2.789.472 4.994 7.026 13.123 11.221 21.743 11.221h9.468c1.104 0 2 .896 2 2s-.896 1.999-2 1.999z" fill="#3762cc"/></g><g><path d="m224.149 153.237v-50.475h7.756c1.256 0 2.274 1.018 2.274 2.274v45.926c0 1.256-1.018 2.274-2.274 2.274h-7.756z" fill="#4671c6"/></g><g><path d="m231.905 155.237h-7.756c-1.104 0-2-.896-2-2v-50.475c0-1.104.896-2 2-2h7.756c2.356 0 4.274 1.917 4.274 4.274v45.926c.001 2.358-1.917 4.275-4.274 4.275zm-5.756-4h5.756c.151 0 .274-.123.274-.274v-45.926c0-.151-.123-.274-.274-.274h-5.756z" fill="#3762cc"/></g><g><path d="m223.604 153.237h-16.501v-50.475h16.501c1.608 0 2.912 1.304 2.912 2.912v44.651c0 1.608-1.304 2.912-2.912 2.912z" fill="#6bdddd"/></g><g><path d="m223.119 133.015h-12.619c-1.876 0-3.397-1.521-3.397-3.397v-26.855h16.501c1.608 0 2.912 1.304 2.912 2.912v23.943c0 1.876-1.521 3.397-3.397 3.397z" fill="#6bdddd"/></g><g><path d="m223.604 155.237h-16.501c-1.104 0-2-.896-2-2v-50.475c0-1.104.896-2 2-2h16.501c2.709 0 4.912 2.204 4.912 4.912v44.65c0 2.71-2.204 4.913-4.912 4.913zm-14.501-4h14.501c.503 0 .912-.409.912-.912v-44.65c0-.503-.409-.912-.912-.912h-14.501z" fill="#3762cc"/></g><g><path d="m223.118 135.015h-12.618c-2.977 0-5.397-2.421-5.397-5.397v-26.855c0-1.104.896-2 2-2h16.501c2.709 0 4.912 2.204 4.912 4.912v23.943c0 2.976-2.421 5.397-5.398 5.397zm-14.015-30.252v24.855c0 .771.627 1.397 1.397 1.397h12.618c.771 0 1.397-.627 1.397-1.397v-23.943c0-.503-.409-.912-.912-.912z" fill="#3762cc"/></g></g><g><path d="m59.446 105.998h-52.04c-1.268 0-2.296 1.028-2.296 2.296v39.413c0 1.268 1.028 2.296 2.296 2.296h52.04z" fill="#f9cfcf"/></g><g><path d="m59.446 152.002h-52.04c-2.369 0-4.296-1.927-4.296-4.296v-39.413c0-2.369 1.927-4.296 4.296-4.296h52.04c1.104 0 2 .896 2 2v44.005c0 1.105-.896 2-2 2zm-52.04-44.004c-.163 0-.296.133-.296.296v39.413c0 .163.133.296.296.296h50.04v-40.005z" fill="#3762cc"/></g><g><g><path d="m54.188 97.737c4.586-4.356 10.669-6.784 16.994-6.784h9.909 9.302c3.805 0 6.896 3.021 7.025 6.795h.012v.243 60.262 6.795h-16.34-9.909c-6.325 0-12.408-2.429-16.994-6.784l-5.291-5.025v-6.795c0-32.774 0-11.312 0-43.68z" fill="#f9a7a7"/></g><g><path d="m54.188 97.737c4.586-4.356 10.669-6.784 16.994-6.784h19.211c3.805 0 6.896 3.021 7.025 6.795h.012v.243 60.262 6.795h-16.34-9.909c-6.325 0-12.408-2.429-16.994-6.784l-5.291-5.025v-6.795c0-32.774 0-11.312 0-43.68z" fill="#f9a7a7"/></g><g><path d="m97.431 167.047h-26.249c-6.868 0-13.393-2.604-18.372-7.334l-5.291-5.025c-.397-.378-.623-.902-.623-1.45v-50.475c0-.548.225-1.072.623-1.45l5.291-5.025c4.979-4.729 11.504-7.334 18.372-7.334h19.211c4.81 0 8.722 3.704 9.012 8.479.016.103.025.208.025.316v67.299c.001 1.103-.895 1.999-1.999 1.999zm-46.534-14.669 4.668 4.434c4.232 4.021 9.779 6.234 15.617 6.234h24.249v-65.078c-.005-.05-.009-.101-.011-.152-.093-2.727-2.301-4.863-5.026-4.863h-19.212c-5.838 0-11.384 2.214-15.617 6.234l-4.668 4.434z" fill="#3762cc"/></g><g><path d="m81.738 104.057v54.681c0 3.485 2.825 6.309 6.309 6.309h18.443c6.969 0 12.619-5.65 12.619-12.619v-42.062c0-6.969-5.65-12.619-12.619-12.619h-18.442c-3.485.001-6.31 2.825-6.31 6.31z" fill="#f9a7a7"/></g><g><path d="m81.738 104.057v54.681c0 3.485 2.825 6.309 6.309 6.309h18.443c6.969 0 12.619-5.65 12.619-12.619v-42.062c0-6.969-5.65-12.619-12.619-12.619h-18.442c-3.485.001-6.31 2.825-6.31 6.31z" fill="#f9a7a7"/></g><g><path d="m106.49 167.047h-18.443c-4.582 0-8.309-3.728-8.309-8.309v-54.681c0-4.582 3.728-8.31 8.309-8.31h18.443c8.061 0 14.619 6.558 14.619 14.619v42.062c0 8.061-6.558 14.619-14.619 14.619zm-18.443-67.299c-2.376 0-4.309 1.933-4.309 4.31v54.681c0 2.376 1.933 4.309 4.309 4.309h18.443c5.855 0 10.619-4.764 10.619-10.619v-42.062c0-5.855-4.764-10.619-10.619-10.619z" fill="#3762cc"/></g><g><path d="m54.188 97.737c4.586-4.356 10.669-6.784 16.994-6.784h9.909 9.302c3.805 0 6.896 3.021 7.025 6.795.019.379.012 16.656.012 16.278 0 4.333-3.513 7.846-7.846 7.846s-7.846-3.513-7.846-7.846v-16.278h-27.561z" fill="#f9a7a7"/></g><g><path d="m89.584 123.872c-5.429 0-9.846-4.417-9.846-9.846v-16.278c0-1.104.896-2 2-2s2 .896 2 2v16.278c0 3.224 2.623 5.846 5.846 5.846s5.846-2.623 5.846-5.846c0-.003 0-.007 0-.011.001-.823.005-15.54-.011-16.198-.093-2.728-2.301-4.864-5.026-4.864h-19.211c-5.838 0-11.384 2.214-15.617 6.234-.801.759-2.071.733-2.831-.066-.761-.799-.736-2.059.062-2.821l.011-.01c4.982-4.733 11.507-7.337 18.375-7.337h19.211c4.893 0 8.856 3.833 9.024 8.726.004.074.013.252.014 8.351v5.511c0 .973 0 1.684-.019 2.213.012.089.018.179.018.271.001 5.43-4.416 9.847-9.846 9.847z" fill="#3762cc"/></g><g><path d="m58.365 117.841h-9.467c-1.104 0-2-.896-2-2s.896-2 2-2h9.467c8.621 0 16.749-4.195 21.744-11.221.64-.9 1.889-1.11 2.789-.471.9.64 1.111 1.888.471 2.789-5.744 8.079-15.091 12.903-25.004 12.903z" fill="#3762cc"/></g><g><path d="m31.851 153.237v-50.475h-7.756c-1.256 0-2.274 1.018-2.274 2.274v45.926c0 1.256 1.018 2.274 2.274 2.274h7.756z" fill="#4671c6"/></g><g><path d="m31.851 155.237h-7.756c-2.357 0-4.274-1.917-4.274-4.274v-45.926c0-2.357 1.917-4.274 4.274-4.274h7.756c1.104 0 2 .896 2 2v50.475c0 1.104-.896 1.999-2 1.999zm-7.756-50.474c-.151 0-.274.123-.274.274v45.926c0 .151.123.274.274.274h5.756v-46.475h-5.756z" fill="#3762cc"/></g><g><path d="m32.396 153.237h16.501v-50.475h-16.501c-1.608 0-2.912 1.304-2.912 2.912v44.651c0 1.608 1.304 2.912 2.912 2.912z" fill="#f9a7a7"/></g><g><path d="m32.881 133.015h12.619c1.876 0 3.397-1.521 3.397-3.397v-26.855h-16.501c-1.608 0-2.912 1.304-2.912 2.912v23.943c0 1.876 1.521 3.397 3.397 3.397z" fill="#f9a7a7"/></g><g><path d="m48.897 155.237h-16.501c-2.709 0-4.912-2.204-4.912-4.912v-44.65c0-2.708 2.204-4.912 4.912-4.912h16.501c1.104 0 2 .896 2 2v50.475c0 1.104-.895 1.999-2 1.999zm-16.501-50.474c-.503 0-.912.409-.912.912v44.65c0 .503.409.912.912.912h14.501v-46.475h-14.501z" fill="#3762cc"/></g><g><path d="m45.5 135.015h-12.619c-2.976 0-5.397-2.421-5.397-5.397v-23.943c0-2.708 2.204-4.912 4.912-4.912h16.501c1.104 0 2 .896 2 2v26.855c0 2.976-2.421 5.397-5.397 5.397zm-13.104-30.252c-.503 0-.912.409-.912.912v23.943c0 .771.627 1.397 1.397 1.397h12.619c.771 0 1.397-.627 1.397-1.397v-24.855z" fill="#3762cc"/></g></g></g><g><path d="m231.914 86.927h-42.764c-1.392 0-2.521-1.129-2.521-2.521 0-1.392 1.129-2.521 2.521-2.521h42.764c1.392 0 2.521 1.129 2.521 2.521 0 1.393-1.129 2.521-2.521 2.521z" fill="#e0ebfc"/></g><g><path d="m250.479 76.323h-42.764c-1.392 0-2.521-1.129-2.521-2.521 0-1.392 1.129-2.521 2.521-2.521h42.764c1.392 0 2.521 1.129 2.521 2.521 0 1.393-1.129 2.521-2.521 2.521z" fill="#e0ebfc"/></g><g><path d="m207.715 184.718h42.764c1.392 0 2.521-1.129 2.521-2.521 0-1.392-1.129-2.521-2.521-2.521h-42.764c-1.392 0-2.521 1.129-2.521 2.521 0 1.393 1.128 2.521 2.521 2.521z" fill="#e0ebfc"/></g><g><path d="m189.149 174.114h42.764c1.392 0 2.521-1.129 2.521-2.521 0-1.392-1.129-2.521-2.521-2.521h-42.764c-1.392 0-2.521 1.129-2.521 2.521 0 1.393 1.129 2.521 2.521 2.521z" fill="#e0ebfc"/></g><g><path d="m24.086 86.927h42.764c1.392 0 2.521-1.129 2.521-2.521 0-1.392-1.129-2.521-2.521-2.521h-42.764c-1.392 0-2.521 1.129-2.521 2.521 0 1.393 1.129 2.521 2.521 2.521z" fill="#e0ebfc"/></g><g><path d="m5.521 76.323h42.764c1.392 0 2.521-1.129 2.521-2.521 0-1.392-1.129-2.521-2.521-2.521h-42.764c-1.392.001-2.521 1.129-2.521 2.521 0 1.393 1.129 2.521 2.521 2.521z" fill="#e0ebfc"/></g><g><path d="m48.285 184.718h-42.764c-1.392 0-2.521-1.129-2.521-2.521 0-1.392 1.129-2.521 2.521-2.521h42.764c1.392 0 2.521 1.129 2.521 2.521 0 1.393-1.128 2.521-2.521 2.521z" fill="#e0ebfc"/></g><g><path d="m66.851 174.114h-42.765c-1.392 0-2.521-1.129-2.521-2.521 0-1.392 1.129-2.521 2.521-2.521h42.764c1.392 0 2.521 1.129 2.521 2.521.001 1.393-1.128 2.521-2.52 2.521z" fill="#e0ebfc"/></g><g><g><path d="m127.148 59.991c.852 0 1.62.285 2.303.853 1.104.921 1.269 2.202.724 3.37l-11.518 24.317c-.647 1.351-2.023 2.047-3.457 2.047-1.425 0-2.805-.69-3.455-2.047l-11.519-24.317c-.539-1.078-.398-2.437.768-3.37.711-.568 1.509-.853 2.389-.853 1.172 0 2.252.577 2.773 1.792l9.129 19.965 9.13-19.965c.524-1.219 1.566-1.792 2.733-1.792z" fill="#4671c6"/></g><g><path d="m132.906 87.678c-1.664-1.22-1.378-3.188-.534-4.223.982-1.203 2.177-.932 3.521-.128 4.625 2.905 10.094 2.575 12.159 1.28.995-.626 1.492-1.521 1.492-2.687 0-2.137-2.687-2.926-6.312-3.669-6.215-1.27-10.879-3.181-10.879-8.959 0-5.637 5.297-9.427 12.073-9.427 4.038 0 7.365 1.009 9.983 3.029 1.596 1.277 1.423 3.134.532 4.223-.99 1.213-2.174.92-3.519.128-2.872-1.819-4.468-2.218-6.954-2.218-2.78 0-5.588.999-5.588 3.754 0 2.054 1.618 2.876 6.314 3.925 5.762 1.272 10.879 3.109 10.879 8.788 0 3.833-2.304 6.607-5.78 8.063-5.028 2.101-13.435 1.248-17.387-1.879z" fill="#4671c6"/></g></g></g></svg>