<svg xmlns="http://www.w3.org/2000/svg" width="26.271" height="28.142" viewBox="0 0 26.271 28.142"><path d="M41.717,2a6.048,6.048,0,0,0-4.485-2H23.038a6.039,6.039,0,0,0-6.006,6.663L18.7,22.728a6.024,6.024,0,0,0,6.006,5.415h4.6V15.593a.826.826,0,1,1,1.652,0v12.55h4.6a6.024,6.024,0,0,0,6.006-5.415L43.238,6.663A6.048,6.048,0,0,0,41.717,2ZM23.867,23.462a.826.826,0,1,1-.385-.87A.834.834,0,0,1,23.867,23.462Zm-1.333-4.1a.826.826,0,1,1-.253.916A.834.834,0,0,1,22.534,19.359Zm1.333-2.5a.826.826,0,1,1-.386-.87A.834.834,0,0,1,23.867,16.855Zm3.3,6.607a.826.826,0,1,1-.386-.87A.834.834,0,0,1,27.17,23.462Zm-1.333-4.1a.826.826,0,1,1-.253.916A.834.834,0,0,1,25.837,19.359Zm1.333-2.5a.826.826,0,1,1-.386-.87A.834.834,0,0,1,27.17,16.855Zm7.548,6.607a.825.825,0,1,1-.385-.87A.833.833,0,0,1,34.718,23.462Zm0-6.607a.825.825,0,1,1-.385-.87.833.833,0,0,1,.385.87Zm0,3.3a.825.825,0,1,1-.385-.869.833.833,0,0,1,.385.869Zm-.824-9.4a.826.826,0,0,1-1.168,0,3.669,3.669,0,0,0-5.182,0,.826.826,0,0,1-1.168,0L23.01,7.4a.826.826,0,0,1,0-1.168,10.087,10.087,0,0,1,14.249,0,.826.826,0,0,1,0,1.168Zm4.128,12.7a.826.826,0,1,1-.385-.87.833.833,0,0,1,.385.87Zm-1.333-4.1a.826.826,0,1,1-.254.916A.833.833,0,0,1,36.688,19.359Zm1.333-2.5a.825.825,0,1,1-.385-.87.834.834,0,0,1,.385.87Z" transform="translate(-16.999 0)"/><path d="M158.515,91.508l2.214,2.214a5.29,5.29,0,0,1,2.3-.952v-.963a.826.826,0,1,1,1.652,0v.963a5.29,5.29,0,0,1,2.3.952l2.214-2.214A8.439,8.439,0,0,0,158.515,91.508Z" transform="translate(-150.724 -84.668)"/></svg>